<svg width="120" height="120" viewBox="0 0 120 120" fill="none" xmlns="http://www.w3.org/2000/svg">
<g id="ana 1">
<path id="Vector" d="M109.149 78.2814C105.399 72.3985 100.477 66.211 94.6881 60.0001C100.477 53.7892 105.399 47.6018 109.149 41.7189C116.766 29.7893 118.712 20.4845 114.68 15.4923C110.626 10.5236 101.11 10.547 87.8912 15.5861C79.2662 18.8673 69.7037 24.0236 60.0006 30.5627C50.3209 24.0236 40.7583 18.8907 32.1099 15.5861C18.8912 10.547 9.37555 10.5236 5.32087 15.4923C1.26618 20.4611 3.23493 29.7893 10.8521 41.7189C14.6021 47.6018 19.524 53.8126 25.3131 60.0001C19.524 66.211 14.6021 72.3985 10.8521 78.2814C3.23493 90.2111 1.28962 99.5157 5.32087 104.508C7.3365 106.969 10.6881 108.211 15.1881 108.211C19.7349 108.211 25.4537 106.945 32.1099 104.414C40.7349 101.133 50.2974 95.9767 60.0006 89.4377C69.6803 95.9767 79.2428 101.133 87.8912 104.414C94.5474 106.945 100.266 108.211 104.813 108.211C109.313 108.211 112.665 106.969 114.68 104.508C118.735 99.5392 116.766 90.2345 109.149 78.2814ZM88.2194 16.4532C94.5006 14.0626 99.9381 12.8204 104.344 12.7267C108.821 12.6329 112.055 13.7814 113.93 16.0782C115.805 18.3986 116.251 21.7736 115.266 26.1564C114.282 30.4689 111.962 35.5314 108.352 41.2032C104.626 47.0393 99.774 53.1564 94.0319 59.3205C88.3835 53.3439 81.9381 47.3673 74.9303 41.6486C70.2662 37.8518 65.5318 34.3127 60.8208 31.1252C70.3599 24.7267 79.7349 19.6877 88.2194 16.4532ZM11.649 41.2032C8.03962 35.5314 5.69587 30.4689 4.73493 26.1564C3.75055 21.7736 4.19587 18.3986 6.07087 16.0782C7.87555 13.8517 10.9459 12.7267 15.2115 12.7267H15.6802C20.1099 12.8204 25.524 14.0626 31.8053 16.4532C40.2896 19.6643 49.6647 24.7268 59.1802 31.1018C54.4693 34.3127 49.7349 37.8282 45.0709 41.6252C38.0631 47.3205 31.6178 53.3205 25.9693 59.297C20.227 53.1798 15.352 47.0393 11.649 41.2032ZM31.7819 103.547C25.5006 105.938 20.0631 107.18 15.6568 107.274C11.1802 107.367 7.94587 106.219 6.07087 103.922C4.19587 101.602 3.75055 98.2267 4.73493 93.8439C5.7193 89.5314 8.03962 84.4689 11.649 78.797C15.3756 72.961 20.227 66.8439 25.9693 60.6798C31.6178 66.6564 38.0631 72.633 45.0709 78.3518C49.7349 82.1486 54.4693 85.6877 59.1802 88.8752C49.6411 95.2736 40.2662 100.313 31.7819 103.547ZM45.6569 77.6252C38.6724 71.9298 32.227 65.9767 26.602 60.0001C32.227 54.0235 38.6724 48.0705 45.6569 42.3752C50.3912 38.508 55.2194 34.9219 60.0006 31.6877C64.7819 34.9455 69.6099 38.5314 74.3444 42.3752C81.3522 48.0705 87.774 54.0235 93.399 60.0001C87.774 65.9767 81.3287 71.9298 74.3444 77.6252C69.6099 81.4923 64.7819 85.0782 60.0006 88.3127C55.2194 85.0548 50.3912 81.4689 45.6569 77.6252ZM113.954 103.922C112.079 106.242 108.844 107.367 104.368 107.274C99.9381 107.18 94.524 105.938 88.2428 103.547C79.7584 100.336 70.3834 95.2736 60.8677 88.8986C65.5786 85.6877 70.3131 82.172 74.9771 78.3752C81.9849 72.6798 88.4303 66.6798 94.0787 60.7032C99.8208 66.8439 104.672 72.9845 108.399 78.8205C112.008 84.4923 114.352 89.5548 115.313 93.8673C116.274 98.2032 115.829 101.602 113.954 103.922Z" fill="white"/>
<path id="Vector_2" d="M62.6484 58.8983L68.0859 51.9141L61.1016 57.3516L60 40.9218L58.8984 57.3516L51.9141 51.9141L57.3516 58.8983L48.5625 60L57.3516 61.1016L51.9141 68.0858L58.8984 62.6483L60 79.078L61.1016 62.6483L68.0859 68.0858L62.6484 61.1016L71.4375 60L62.6484 58.8983Z" fill="white"/>
</g>
</svg>
