<svg width="120" height="120" viewBox="0 0 120 120" fill="none" xmlns="http://www.w3.org/2000/svg">
<g id="content 1">
<path id="Vector" d="M107.906 73.9219C112.641 69.7265 115.172 64.9687 115.172 60C115.172 54.9375 112.5 50.0157 107.461 45.7032C112.477 41.4141 115.172 36.5157 115.172 31.3827C115.172 23.8125 109.336 16.7109 98.7187 11.4141C88.2187 6.16406 74.25 3.25781 59.4141 3.25781C44.5781 3.25781 30.5859 6.16406 20.0859 11.4141C9.46876 16.7109 3.63281 23.8125 3.63281 31.3827C3.63281 36.5157 6.30468 41.4141 11.3438 45.7032C6.30468 50.0157 3.63281 54.9375 3.63281 60C3.63281 65.1327 6.30468 70.0313 11.3438 74.3203C6.30468 78.6327 3.63281 83.5546 3.63281 88.6173C3.63281 96.1875 9.46876 103.289 20.0859 108.586C30.5859 113.836 44.5546 116.742 59.3906 116.742C74.2265 116.742 88.1954 113.859 98.6954 108.586C100.336 107.766 101.883 106.898 103.289 105.984C111.188 101.18 115.898 95.0157 115.898 88.3125C115.898 83.0391 112.969 78.1173 107.906 73.9219ZM4.57032 31.3827C4.57032 16.4062 29.1562 4.19532 59.3906 4.19532C89.6249 4.19532 114.211 16.3828 114.211 31.3827C114.211 46.3594 89.6249 58.5703 59.3906 58.5703C29.1562 58.5703 4.57032 46.3594 4.57032 31.3827ZM59.3906 87.1875C29.1562 87.1875 4.57032 74.9765 4.57032 60C4.57032 55.1719 7.17187 50.4609 12.0703 46.3125C14.3203 48.1173 16.9922 49.8281 20.0859 51.3516C30.5859 56.6016 44.5546 59.5078 59.3906 59.5078C74.2265 59.5078 88.1954 56.6249 98.6954 51.3516C101.789 49.8046 104.461 48.1173 106.711 46.3125C111.609 50.4609 114.211 55.1954 114.211 60C114.211 74.9765 89.6249 87.1875 59.3906 87.1875Z" fill="white"/>
</g>
</svg>
