<svg width="120" height="120" viewBox="0 0 120 120" fill="none" xmlns="http://www.w3.org/2000/svg">
<path d="M80.6718 23.9531C72.9845 23.9531 65.8593 26.3671 60 30.4921C54.1407 26.3671 47.0157 23.9531 39.3282 23.9531C19.4532 23.9531 3.28125 40.1249 3.28125 59.9999C3.28125 79.8749 19.4532 96.0467 39.3282 96.0467C47.0157 96.0467 54.1407 93.6328 60 89.5078C65.8593 93.6328 72.9845 96.0467 80.6718 96.0467C100.547 96.0467 116.719 79.8749 116.719 59.9999C116.719 40.1249 100.547 23.9531 80.6718 23.9531ZM64.2657 35.3203L46.1954 53.414C47.8829 44.5078 52.9454 36.7967 60 31.6406C61.5234 32.7656 62.9532 33.9842 64.2657 35.3203ZM52.2421 80.5546C51.2578 79.1953 50.3672 77.7421 49.5704 76.2421L73.5704 52.2656C74.0157 54.2578 74.2968 56.3203 74.3907 58.4062L52.2421 80.5546ZM46.8516 69.3749C46.3359 67.4765 45.9609 65.5078 45.75 63.4921L68.6016 40.6406C69.5391 42.0703 70.3829 43.5467 71.1093 45.0937L46.8516 69.3749ZM39.3282 95.1092C19.9688 95.1092 4.21875 79.3592 4.21875 59.9999C4.21875 40.6406 19.9688 24.8906 39.3282 24.8906C46.6875 24.8906 53.5546 27.1874 59.2032 31.0781C50.3671 37.664 44.6484 48.164 44.6484 59.9999C44.6484 71.8358 50.3671 82.3358 59.2032 88.9217C53.5312 92.8124 46.6875 95.1092 39.3282 95.1092ZM56.7657 85.6874L73.1954 69.2342C71.0625 77.0156 66.3516 83.7187 60 88.3592C58.875 87.539 57.7734 86.6249 56.7657 85.6874ZM80.6718 95.1092C73.3125 95.1092 66.4454 92.8124 60.7968 88.9217C69.6329 82.3358 75.3516 71.8358 75.3516 59.9999C75.3516 48.164 69.6329 37.664 60.7968 31.0781C66.4454 27.1874 73.2891 24.8906 80.6718 24.8906C100.031 24.8906 115.781 40.6406 115.781 59.9999C115.781 79.3592 100.031 95.1092 80.6718 95.1092Z" fill="white"/>
</svg>
