<svg width="120" height="120" viewBox="0 0 120 120" fill="none" xmlns="http://www.w3.org/2000/svg">
<path d="M113.813 51.5157C112.442 49.5196 110.604 47.8876 108.461 46.7606C106.317 45.6336 103.931 45.0454 101.509 45.0468C99.3291 45.0468 97.1729 45.1641 95.04 45.3751C96.704 44.0157 98.2978 42.5625 99.8448 41.0157C103.313 37.5468 104.86 32.5781 103.97 27.75C102.845 21.7032 98.04 16.875 91.9932 15.7734C87.1651 14.8828 82.1964 16.4297 78.7275 19.8984C77.204 21.4219 75.751 23.0392 74.3681 24.7032C74.5791 22.5703 74.6964 20.3906 74.6964 18.2343C74.6964 13.3125 72.2823 8.71876 68.2275 5.92969C63.1651 2.4375 56.3448 2.4375 51.2823 5.92969L51.5634 6.30469L51.3056 5.92969C49.3097 7.30156 47.6777 9.13876 46.5505 11.2826C45.4236 13.4264 44.8354 15.8124 44.8369 18.2343C44.8369 20.4141 44.954 22.5703 45.1651 24.7032C43.8056 23.0392 42.3526 21.4454 40.8056 19.8984C37.3369 16.4297 32.3681 14.8828 27.54 15.7734C21.4932 16.8984 16.665 21.7032 15.5635 27.75C14.6963 32.5078 16.1728 37.3827 19.5245 40.8516C21.0948 42.9375 22.8759 44.5078 24.3291 45.3516C22.2432 45.1406 20.1337 45.0468 18.0245 45.0468C13.1025 45.0468 8.50878 47.4609 5.71973 51.5157C2.22754 56.5781 2.22754 63.3984 5.71973 68.4609C8.50878 72.5157 13.1025 74.9297 18.0245 74.9297C20.204 74.9297 22.3604 74.8125 24.4932 74.6016C22.8291 75.9609 21.2353 77.4141 19.6885 78.9609C16.2197 82.4297 14.6728 87.3984 15.5635 92.2265C16.6885 98.2735 21.4932 103.102 27.54 104.203C28.454 104.367 29.3448 104.461 30.2588 104.461C34.1729 104.461 37.9932 102.914 40.8291 100.078C42.3526 98.5546 43.8056 96.9375 45.1885 95.2735C44.9775 97.4062 44.8604 99.5859 44.8604 101.742C44.8604 106.664 47.2745 111.258 51.3291 114.047C53.8604 115.781 56.8369 116.672 59.79 116.672C62.7432 116.672 65.7197 115.805 68.251 114.047L67.9697 113.648L68.2275 114.023C72.2823 111.234 74.6964 106.641 74.6964 101.719C74.6964 99.5391 74.5791 97.3827 74.3681 95.25C75.7275 96.9141 77.1807 98.5078 78.7275 100.055C81.5635 102.891 85.3604 104.438 89.2978 104.438C90.1885 104.438 91.1026 104.367 92.0166 104.18C98.0634 103.055 102.892 98.25 103.993 92.2032C104.884 87.3751 103.337 82.4062 99.8681 78.9375C98.3448 77.4141 96.7275 75.9609 95.0635 74.5781C97.1964 74.7891 99.3759 74.9062 101.532 74.9062C106.454 74.9062 111.048 72.4922 113.837 68.4375C117.306 63.3751 117.306 56.5781 113.813 51.5157ZM82.3135 48.8906C84.54 48.2109 86.8134 47.6249 89.1104 47.1797L91.5245 46.9219C84.3526 52.1484 76.1494 55.8751 67.3837 57.8203L62.2745 58.9454L66.704 56.1327C66.751 56.1094 66.7978 56.0859 66.8448 56.0391L82.3135 48.8906ZM60.7978 57.4687L61.9229 52.3594C63.8916 43.5 67.6885 35.2032 73.0088 27.9609C71.6729 36.8673 68.4853 45.3984 63.5869 53.0625L60.7978 57.4687ZM51.8213 6.70314C54.1885 5.0625 56.9775 4.2422 59.7666 4.2422C62.5556 4.2422 65.3213 5.0625 67.7119 6.70314C71.5088 9.30469 73.7821 13.6172 73.7821 18.2343C73.7821 20.8594 73.6181 23.4844 73.3135 26.0625C67.3604 33.7265 63.165 42.6094 61.0556 52.1719L59.79 57.8203L58.5245 52.1719C56.415 42.6328 52.2197 33.7265 46.2666 26.0625C45.9618 23.4844 45.7978 20.8594 45.7978 18.2343C45.7745 13.6172 48.0245 9.30469 51.8213 6.70314ZM58.7353 62.4843L57.6104 67.5938C55.6416 76.4532 51.8448 84.75 46.5245 91.9922C47.8604 83.1094 51.0478 74.5546 55.9464 66.8906L58.7353 62.4843ZM55.9229 53.0625C54.6337 51.0235 53.4618 48.9375 52.4072 46.8046C51.3526 44.3673 50.251 41.6954 49.3369 39.4687C48.0478 35.7422 47.0869 31.8984 46.501 27.9843C51.8448 35.2265 55.6181 43.5235 57.5869 52.3828L58.7353 57.4922L55.9229 53.0625ZM45.3526 26.4375V26.4843C45.3526 26.4609 45.3291 26.4375 45.3291 26.4141L45.3526 26.4375ZM52.8526 56.1327L57.2821 58.9454L52.1729 57.8203C43.3134 55.8516 35.0166 52.0546 27.7745 46.7343C36.6337 48.0703 45.1885 51.2578 52.8526 56.1327ZM25.8526 73.5C23.2745 73.8046 20.6494 73.9687 18.0245 73.9687C13.4072 73.9687 9.11816 71.6954 6.49316 67.8984C3.21192 63.1406 3.21192 56.7657 6.49316 52.0313C9.09473 48.2344 13.4072 45.9609 18.0245 45.9609C20.6494 45.9609 23.2745 46.1249 25.8526 46.4297C33.5166 52.3827 42.3994 56.5781 51.9618 58.6875L57.6104 59.9532L51.9618 61.2187C42.3994 63.3516 33.5166 67.5468 25.8526 73.5ZM27.751 73.2422C34.9932 67.8984 43.29 64.1249 52.1494 62.1562L57.2588 61.0313L52.8291 63.8438C45.1885 68.6954 36.6337 71.8828 27.751 73.2422ZM67.7119 113.25C62.954 116.531 56.5791 116.531 51.8448 113.25C48.0478 110.648 45.7745 106.336 45.7745 101.719C45.7745 99.0938 45.9385 96.4687 46.2432 93.8906C52.1964 86.2265 56.3916 77.3438 58.501 67.7813L59.7666 62.1327L61.0323 67.7813C63.1416 77.3203 67.3369 86.2265 73.29 93.8906C73.5948 96.4687 73.7588 99.0938 73.7588 101.719C73.7588 106.336 71.5088 110.648 67.7119 113.25ZM60.7978 62.4843L63.6104 66.9141C68.4853 74.5781 71.6729 83.1094 73.0323 92.0157C67.6885 84.7735 63.915 76.4765 61.9464 67.6173L60.7978 62.4843ZM66.6807 63.8203L62.251 61.0078L67.3604 62.1327C76.2197 64.1016 84.5167 67.8984 91.7588 73.2187C82.8994 71.8827 74.3448 68.6954 66.6807 63.8203ZM113.04 67.9219C110.439 71.7187 106.126 73.9922 101.509 73.9922C98.8837 73.9922 96.2588 73.8281 93.6807 73.5235C86.0166 67.5703 77.1337 63.3751 67.5713 61.2657L61.9229 60L67.5713 58.7343C77.1104 56.6249 86.0166 52.4297 93.6807 46.4765C96.2588 46.1719 98.8837 46.0078 101.509 46.0078C106.126 46.0078 110.415 48.2813 113.04 52.0781C116.321 56.7892 116.321 63.1641 113.04 67.9219Z" fill="white"/>
</svg>
