<svg width="120" height="120" viewBox="0 0 120 120" fill="none" xmlns="http://www.w3.org/2000/svg">
<g id="seo 1">
<path id="Vector" d="M116.25 59.5313H62.9532L113.648 43.0546L113.344 42.1641L62.6719 58.6406L105.773 27.3281L105.234 26.5546L62.1094 57.8906L93.4454 14.7656L92.6719 14.2266L61.3594 57.3281L77.8359 6.65625L76.9454 6.35157L60.4687 57.0468V3.75H59.5313V57.0468L43.0546 6.35157L42.1641 6.65625L58.6406 57.3281L27.3281 14.2266L26.5546 14.7656L57.8906 57.8906L14.7656 26.5546L14.2266 27.3281L57.3281 58.6406L6.65625 42.1641L6.35157 43.0546L57.0468 59.5313H3.75V60.4687H57.0468L6.35157 76.9454L6.65625 77.8359L57.3281 61.3594L14.2266 92.6719L14.7656 93.4454L57.8906 62.1094L26.5546 105.234L27.3281 105.773L58.6406 62.6719L42.1641 113.344L43.0546 113.648L59.5313 62.9532V116.25H60.4687V62.9532L76.9454 113.648L77.8359 113.344L61.3594 62.6719L92.6719 105.773L93.4454 105.234L62.1094 62.1094L105.234 93.4454L105.773 92.6719L62.6719 61.3594L113.344 77.8359L113.648 76.9454L62.9532 60.4687H116.25V59.5313Z" fill="white"/>
</g>
</svg>
