<svg width="120" height="120" viewBox="0 0 120 120" fill="none" xmlns="http://www.w3.org/2000/svg">
<g id="social media 1">
<path id="Vector" d="M116.297 3.28125C101.016 3.28125 86.2032 6.25781 72.2578 12.1641C58.7813 17.8594 46.7109 25.9922 36.3281 36.3751C25.9454 46.7578 17.8125 58.8516 12.1172 72.3046C6.21094 86.25 3.23438 101.062 3.23438 116.344V116.812H31.3827V115.875C31.5 93.3516 40.3359 72.1876 56.2265 56.2968C72.1406 40.3827 93.2813 31.5703 115.805 31.4532L116.742 31.4765V3.28125H116.297ZM76.1484 76.1954C65.5546 86.7891 59.6484 100.875 59.5313 115.875V116.812H88.6173V116.344C88.6173 101.086 101.039 88.6641 116.297 88.6641H116.766V59.5781H115.828C100.828 59.6954 86.7422 65.6016 76.1484 76.1954ZM115.828 87.7265C100.43 87.9844 87.9375 100.477 87.6797 115.875H60.4687C60.5859 101.133 66.3984 87.2813 76.8046 76.8516C87.211 66.4454 101.086 60.6328 115.828 60.5157V87.7265Z" fill="white"/>
</g>
</svg>
