<svg width="617" height="48" viewBox="0 0 617 48" fill="none" xmlns="http://www.w3.org/2000/svg">
<path d="M1.136 47V42.52L19.312 23.192C20.5493 21.912 21.5093 20.76 22.192 19.736C22.8747 18.712 23.344 17.752 23.6 16.856C23.8987 15.9173 24.048 14.936 24.048 13.912C24.048 11.9067 23.2373 10.2427 21.616 8.92C19.9947 7.59733 17.9467 6.936 15.472 6.936C13.424 6.936 11.504 7.34133 9.712 8.152C7.92 8.96267 5.936 10.3707 3.76 12.376L0.304 8.152C2.69333 5.93333 5.14667 4.26933 7.664 3.16C10.224 2.05066 12.8693 1.496 15.6 1.496C18.4587 1.496 20.976 2.008 23.152 3.032C25.328 4.056 27.0133 5.48533 28.208 7.32C29.4453 9.112 30.064 11.1813 30.064 13.528C30.064 15.0213 29.872 16.408 29.488 17.688C29.104 18.9253 28.4427 20.248 27.504 21.656C26.5653 23.0213 25.2427 24.6 23.536 26.392L8.944 41.752L30.96 41.688V47H1.136ZM55.004 47.704C51.2493 47.704 47.964 46.744 45.148 44.824C42.332 42.8613 40.1133 40.152 38.492 36.696C36.9133 33.1973 36.124 29.1653 36.124 24.6C36.124 20.0347 36.9133 16.024 38.492 12.568C40.1133 9.06933 42.332 6.36 45.148 4.44C47.964 2.47733 51.2493 1.496 55.004 1.496C58.716 1.496 61.98 2.47733 64.796 4.44C67.612 6.36 69.8093 9.06933 71.388 12.568C73.0093 16.024 73.82 20.0347 73.82 24.6C73.82 29.1653 73.0093 33.1973 71.388 36.696C69.8093 40.152 67.612 42.8613 64.796 44.824C61.98 46.744 58.716 47.704 55.004 47.704ZM55.004 42.136C57.564 42.136 59.7827 41.432 61.66 40.024C63.5373 38.5733 64.988 36.5253 66.012 33.88C67.036 31.2347 67.548 28.1413 67.548 24.6C67.548 21.016 67.036 17.9227 66.012 15.32C64.988 12.6747 63.5373 10.648 61.66 9.24C59.7827 7.78933 57.564 7.064 55.004 7.064C52.444 7.064 50.2253 7.78933 48.348 9.24C46.4707 10.648 44.9987 12.6747 43.932 15.32C42.908 17.9227 42.396 21.016 42.396 24.6C42.396 28.1413 42.908 31.2347 43.932 33.88C44.9987 36.5253 46.4707 38.5733 48.348 40.024C50.2253 41.432 52.444 42.136 55.004 42.136ZM93.0775 38.104V26.712H82.4535V21.72H93.0775V10.264H98.1975V21.72H108.822V26.712H98.1975V38.104H93.0775ZM145.02 47V8.152H129.276V2.2H167.484V8.152H151.74V47H145.02ZM169.339 47V14.424H175.739V18.584C176.763 17.048 178.021 15.8533 179.515 15C181.051 14.104 182.779 13.656 184.699 13.656C186.021 13.6987 187.109 13.8907 187.963 14.232V19.992C187.365 19.736 186.747 19.5653 186.107 19.48C185.467 19.352 184.827 19.288 184.187 19.288C182.309 19.288 180.645 19.8 179.195 20.824C177.744 21.8053 176.592 23.256 175.739 25.176V47H169.339ZM205.259 47.64C202.742 47.64 200.523 47.1067 198.603 46.04C196.683 44.9733 195.19 43.48 194.123 41.56C193.056 39.5973 192.523 37.3573 192.523 34.84V14.424H198.859V33.752C198.859 36.312 199.584 38.3387 201.035 39.832C202.528 41.3253 204.512 42.072 206.987 42.072C208.736 42.072 210.294 41.7093 211.659 40.984C213.024 40.216 214.134 39.1493 214.987 37.784V14.424H221.387V47H214.987V43.672C212.47 46.3173 209.227 47.64 205.259 47.64ZM240.164 47.64C237.348 47.64 234.702 47.2347 232.228 46.424C229.796 45.5707 227.684 44.376 225.892 42.84L229.411 38.616C231.076 39.9387 232.782 40.9627 234.532 41.688C236.324 42.3707 238.137 42.712 239.972 42.712C242.276 42.712 244.153 42.264 245.604 41.368C247.054 40.472 247.78 39.2987 247.78 37.848C247.78 36.6533 247.353 35.7147 246.5 35.032C245.646 34.3493 244.324 33.88 242.532 33.624L236.644 32.792C233.401 32.3227 230.969 31.32 229.348 29.784C227.726 28.248 226.916 26.2 226.916 23.64C226.916 21.6773 227.449 19.9707 228.516 18.52C229.582 17.0267 231.076 15.8747 232.996 15.064C234.916 14.2107 237.156 13.784 239.716 13.784C242.062 13.784 244.324 14.1253 246.5 14.808C248.676 15.4907 250.766 16.5573 252.772 18.008L249.508 22.232C247.716 21.0373 245.966 20.1627 244.26 19.608C242.596 19.0533 240.91 18.776 239.204 18.776C237.241 18.776 235.662 19.2027 234.468 20.056C233.273 20.8667 232.676 21.9333 232.676 23.256C232.676 24.4507 233.081 25.3893 233.892 26.072C234.745 26.712 236.132 27.16 238.052 27.416L243.94 28.248C247.182 28.7173 249.636 29.72 251.3 31.256C252.964 32.7493 253.796 34.776 253.796 37.336C253.796 39.2987 253.198 41.0693 252.004 42.648C250.809 44.184 249.188 45.4 247.14 46.296C245.092 47.192 242.766 47.64 240.164 47.64ZM272.041 47.576C268.883 47.576 266.473 46.8507 264.809 45.4C263.145 43.9067 262.312 41.752 262.312 38.936V19.8H255.401V14.424H262.312V6.104L268.649 4.568V14.424H278.249V19.8H268.649V37.464C268.649 39.128 269.011 40.3227 269.737 41.048C270.505 41.7307 271.742 42.072 273.449 42.072C274.345 42.072 275.134 42.008 275.817 41.88C276.542 41.752 277.31 41.56 278.121 41.304V46.68C277.267 46.9787 276.265 47.192 275.113 47.32C274.003 47.4907 272.979 47.576 272.041 47.576ZM298.08 47.576C294.88 47.576 291.978 46.8293 289.376 45.336C286.816 43.8427 284.768 41.816 283.232 39.256C281.738 36.696 280.992 33.8373 280.992 30.68C280.992 27.5653 281.717 24.7493 283.168 22.232C284.618 19.672 286.581 17.6453 289.056 16.152C291.53 14.616 294.282 13.848 297.312 13.848C300.341 13.848 303.029 14.616 305.376 16.152C307.722 17.6453 309.578 19.6933 310.944 22.296C312.352 24.856 313.056 27.7573 313.056 31V32.792H287.392C287.733 34.584 288.394 36.184 289.376 37.592C290.4 39 291.68 40.1093 293.216 40.92C294.794 41.7307 296.501 42.136 298.336 42.136C299.914 42.136 301.429 41.9013 302.88 41.432C304.373 40.92 305.61 40.1947 306.592 39.256L310.688 43.288C308.768 44.7387 306.784 45.8267 304.736 46.552C302.73 47.2347 300.512 47.576 298.08 47.576ZM287.456 27.992H306.72C306.464 26.2853 305.866 24.792 304.928 23.512C304.032 22.1893 302.901 21.1653 301.536 20.44C300.213 19.672 298.762 19.288 297.184 19.288C295.562 19.288 294.069 19.6507 292.704 20.376C291.338 21.1013 290.186 22.1253 289.248 23.448C288.352 24.728 287.754 26.2427 287.456 27.992ZM334.252 47.512C331.223 47.512 328.449 46.7653 325.932 45.272C323.415 43.7787 321.431 41.7733 319.98 39.256C318.529 36.696 317.804 33.8373 317.804 30.68C317.804 27.5227 318.529 24.6853 319.98 22.168C321.473 19.6507 323.479 17.6453 325.996 16.152C328.513 14.6587 331.308 13.912 334.38 13.912C336.172 13.912 337.9 14.1893 339.564 14.744C341.228 15.2987 342.764 16.1093 344.172 17.176V2.2L350.572 0.983997V47H344.236V43.864C341.463 46.296 338.135 47.512 334.252 47.512ZM335.084 41.944C336.961 41.944 338.668 41.6027 340.204 40.92C341.783 40.2373 343.105 39.256 344.172 37.976V23.32C343.105 22.1253 341.783 21.1867 340.204 20.504C338.668 19.7787 336.961 19.416 335.084 19.416C333.036 19.416 331.18 19.9067 329.516 20.888C327.852 21.8693 326.529 23.2133 325.548 24.92C324.567 26.584 324.076 28.4827 324.076 30.616C324.076 32.7493 324.567 34.6693 325.548 36.376C326.529 38.0827 327.852 39.448 329.516 40.472C331.18 41.4533 333.036 41.944 335.084 41.944ZM372.294 47V2.2H393.03C395.974 2.2 398.534 2.776 400.71 3.928C402.886 5.03733 404.593 6.59467 405.83 8.6C407.067 10.6053 407.686 12.9307 407.686 15.576C407.686 18.2213 407.067 20.5467 405.83 22.552C404.593 24.5573 402.865 26.136 400.646 27.288C398.47 28.3973 395.931 28.952 393.03 28.952H379.014V47H372.294ZM379.014 23.256H392.326C394.971 23.256 397.062 22.5733 398.598 21.208C400.177 19.8 400.966 17.944 400.966 15.64C400.966 13.336 400.177 11.5013 398.598 10.136C397.062 8.77066 394.971 8.088 392.326 8.088H379.014V23.256ZM422.518 47.576C420.171 47.576 418.102 47.1707 416.31 46.36C414.518 45.5067 413.11 44.3333 412.086 42.84C411.062 41.3467 410.549 39.6187 410.549 37.656C410.549 34.584 411.723 32.1733 414.07 30.424C416.416 28.632 419.638 27.736 423.734 27.736C426.934 27.736 429.899 28.3547 432.63 29.592V26.136C432.63 23.7893 431.947 22.04 430.582 20.888C429.259 19.736 427.296 19.16 424.694 19.16C423.2 19.16 421.643 19.3947 420.022 19.864C418.4 20.2907 416.587 20.9733 414.582 21.912L412.214 17.112C414.688 15.96 416.992 15.128 419.126 14.616C421.259 14.0613 423.414 13.784 425.59 13.784C429.814 13.784 433.078 14.7867 435.382 16.792C437.728 18.7973 438.902 21.656 438.902 25.368V47H432.63V44.184C431.179 45.336 429.622 46.1893 427.958 46.744C426.294 47.2987 424.48 47.576 422.518 47.576ZM416.694 37.528C416.694 39.1067 417.355 40.3867 418.678 41.368C420.043 42.3067 421.814 42.776 423.99 42.776C425.696 42.776 427.254 42.5413 428.662 42.072C430.112 41.56 431.435 40.7707 432.63 39.704V34.2C431.392 33.4747 430.091 32.9627 428.726 32.664C427.403 32.3227 425.91 32.152 424.246 32.152C421.899 32.152 420.043 32.6427 418.678 33.624C417.355 34.5627 416.694 35.864 416.694 37.528ZM446.276 47V14.424H452.676V18.584C453.7 17.048 454.959 15.8533 456.452 15C457.988 14.104 459.716 13.656 461.636 13.656C462.959 13.6987 464.047 13.8907 464.9 14.232V19.992C464.303 19.736 463.684 19.5653 463.044 19.48C462.404 19.352 461.764 19.288 461.124 19.288C459.247 19.288 457.583 19.8 456.132 20.824C454.681 21.8053 453.529 23.256 452.676 25.176V47H446.276ZM483.978 47.576C480.821 47.576 478.41 46.8507 476.746 45.4C475.082 43.9067 474.25 41.752 474.25 38.936V19.8H467.338V14.424H474.25V6.104L480.586 4.568V14.424H490.186V19.8H480.586V37.464C480.586 39.128 480.949 40.3227 481.674 41.048C482.442 41.7307 483.679 42.072 485.386 42.072C486.282 42.072 487.071 42.008 487.754 41.88C488.479 41.752 489.247 41.56 490.058 41.304V46.68C489.205 46.9787 488.202 47.192 487.05 47.32C485.941 47.4907 484.917 47.576 483.978 47.576ZM494.901 47V14.424H501.301V17.752C503.818 15.1067 507.082 13.784 511.093 13.784C513.61 13.784 515.808 14.3173 517.685 15.384C519.605 16.4507 521.098 17.944 522.165 19.864C523.274 21.784 523.829 24.0027 523.829 26.52V47H517.429V27.608C517.429 25.048 516.704 23.0427 515.253 21.592C513.845 20.0987 511.861 19.352 509.301 19.352C507.594 19.352 506.058 19.7147 504.693 20.44C503.328 21.1653 502.197 22.2107 501.301 23.576V47H494.901ZM546.83 47.576C543.63 47.576 540.728 46.8293 538.126 45.336C535.566 43.8427 533.518 41.816 531.982 39.256C530.488 36.696 529.742 33.8373 529.742 30.68C529.742 27.5653 530.467 24.7493 531.918 22.232C533.368 19.672 535.331 17.6453 537.806 16.152C540.28 14.616 543.032 13.848 546.062 13.848C549.091 13.848 551.779 14.616 554.126 16.152C556.472 17.6453 558.328 19.6933 559.694 22.296C561.102 24.856 561.806 27.7573 561.806 31V32.792H536.142C536.483 34.584 537.144 36.184 538.126 37.592C539.15 39 540.43 40.1093 541.966 40.92C543.544 41.7307 545.251 42.136 547.086 42.136C548.664 42.136 550.179 41.9013 551.63 41.432C553.123 40.92 554.36 40.1947 555.342 39.256L559.438 43.288C557.518 44.7387 555.534 45.8267 553.486 46.552C551.48 47.2347 549.262 47.576 546.83 47.576ZM536.206 27.992H555.47C555.214 26.2853 554.616 24.792 553.678 23.512C552.782 22.1893 551.651 21.1653 550.286 20.44C548.963 19.672 547.512 19.288 545.934 19.288C544.312 19.288 542.819 19.6507 541.454 20.376C540.088 21.1013 538.936 22.1253 537.998 23.448C537.102 24.728 536.504 26.2427 536.206 27.992ZM567.901 47V14.424H574.301V18.584C575.325 17.048 576.584 15.8533 578.077 15C579.613 14.104 581.341 13.656 583.261 13.656C584.584 13.6987 585.672 13.8907 586.525 14.232V19.992C585.928 19.736 585.309 19.5653 584.669 19.48C584.029 19.352 583.389 19.288 582.749 19.288C580.872 19.288 579.208 19.8 577.757 20.824C576.306 21.8053 575.154 23.256 574.301 25.176V47H567.901ZM602.851 47.64C600.035 47.64 597.39 47.2347 594.915 46.424C592.483 45.5707 590.371 44.376 588.579 42.84L592.099 38.616C593.763 39.9387 595.47 40.9627 597.219 41.688C599.011 42.3707 600.824 42.712 602.659 42.712C604.963 42.712 606.84 42.264 608.291 41.368C609.742 40.472 610.467 39.2987 610.467 37.848C610.467 36.6533 610.04 35.7147 609.187 35.032C608.334 34.3493 607.011 33.88 605.219 33.624L599.331 32.792C596.088 32.3227 593.656 31.32 592.035 29.784C590.414 28.248 589.603 26.2 589.603 23.64C589.603 21.6773 590.136 19.9707 591.203 18.52C592.27 17.0267 593.763 15.8747 595.683 15.064C597.603 14.2107 599.843 13.784 602.403 13.784C604.75 13.784 607.011 14.1253 609.187 14.808C611.363 15.4907 613.454 16.5573 615.459 18.008L612.195 22.232C610.403 21.0373 608.654 20.1627 606.947 19.608C605.283 19.0533 603.598 18.776 601.891 18.776C599.928 18.776 598.35 19.2027 597.155 20.056C595.96 20.8667 595.363 21.9333 595.363 23.256C595.363 24.4507 595.768 25.3893 596.579 26.072C597.432 26.712 598.819 27.16 600.739 27.416L606.627 28.248C609.87 28.7173 612.323 29.72 613.987 31.256C615.651 32.7493 616.483 34.776 616.483 37.336C616.483 39.2987 615.886 41.0693 614.691 42.648C613.496 44.184 611.875 45.4 609.827 46.296C607.779 47.192 605.454 47.64 602.851 47.64Z" fill="white"/>
</svg>
