<svg width="1320" height="288" viewBox="0 0 1320 288" fill="none" xmlns="http://www.w3.org/2000/svg">
<path fill-rule="evenodd" clip-rule="evenodd" d="M309.93 267.146H209.109L105.016 87.2148L155.278 0L309.93 267.146ZM239.667 211.68C241.08 205.732 238.106 200.824 237.362 199.635C216.643 164.095 195.924 128.53 175.204 92.9398C174.535 91.9733 172.23 89.0735 167.992 87.8096C162.787 86.3225 158.475 88.6274 157.657 89.0735C153.097 91.7998 148.561 94.526 144.051 97.2523C169.43 140.872 194.833 184.492 220.261 228.112C225.863 224.444 231.464 220.8 237.065 217.182C237.957 215.992 239.147 214.133 239.667 211.68Z" fill="#232323"/>
<path fill-rule="evenodd" clip-rule="evenodd" d="M309.93 267.146H209.109L105.016 87.2147L155.278 0L309.93 267.146ZM239.667 211.68C241.08 205.732 238.106 200.824 237.362 199.635C216.643 164.095 195.924 128.53 175.204 92.9398C174.535 91.9733 172.23 89.0735 167.992 87.8095C162.787 86.3225 158.475 88.6274 157.657 89.0735C153.097 91.7998 148.561 94.526 144.051 97.2523C169.43 140.872 194.833 184.492 220.261 228.112C225.863 224.444 231.464 220.8 237.065 217.182C237.957 215.992 239.147 214.133 239.667 211.68Z" fill="black"/>
<path fill-rule="evenodd" clip-rule="evenodd" d="M187.547 266.922H187.398L137.211 267.145L126.876 247.814H61.2972L51.1854 266.922H0.626099L93.8634 104.91L94.0121 105.058L186.134 264.692L187.547 266.922ZM132.526 234.431L131.932 233.464L93.9377 167.663L55.5722 234.431H108.659L108.734 234.579H132.526V234.431Z" fill="white"/>
<path d="M260.858 26.4683C255.95 36.2084 250.448 45.5024 244.798 54.6476C239.147 63.8673 233.199 72.8638 227.102 81.7117C224.772 85.1319 222.368 88.5273 219.89 91.8979C219.642 92.344 219.345 92.7654 218.998 93.1619L217.139 89.9648L215.28 86.6933C215.528 86.2472 215.8 85.8259 216.098 85.4293C217.833 82.8518 219.568 80.2743 221.303 77.6967C227.449 68.8736 233.769 60.1497 240.262 51.5249C246.88 42.9744 253.571 34.5726 260.858 26.4683Z" fill="black"/>
<path d="M304.577 89.1475C296.026 95.8391 287.104 101.936 278.107 107.81C269.036 113.708 259.866 119.384 250.597 124.836C247.673 126.522 244.748 128.182 241.824 129.818C241.427 130.066 241.03 130.289 240.634 130.487L238.924 127.587L237.214 124.613C237.61 124.365 238.007 124.118 238.403 123.87C241.278 122.135 244.153 120.425 247.028 118.739C256.347 113.337 265.79 108.132 275.356 103.126C284.873 98.144 294.539 93.3112 304.577 89.1475Z" fill="black"/>
<path d="M336.325 152.571C325.916 155.619 315.358 157.924 304.8 160.08C294.192 162.162 283.56 163.996 272.903 165.582C269.73 166.078 266.558 166.549 263.386 166.995C262.84 167.045 262.32 167.094 261.824 167.144L260.04 164.021L258.181 160.898C258.677 160.799 259.172 160.725 259.668 160.675C263.733 159.932 267.822 159.262 271.936 158.668C282.544 157.081 293.226 155.743 303.982 154.653C314.688 153.612 325.469 152.72 336.325 152.571Z" fill="black"/>
<path fill-rule="evenodd" clip-rule="evenodd" d="M187.547 266.922H187.398L137.211 267.145L126.876 247.814H61.2972L51.1854 266.922H0.626099L94.0121 105.058L94.0864 104.91L187.547 266.922ZM114.682 217.255L94.0864 178.592L73.4909 217.255H114.682Z" fill="white"/>
<path fill-rule="evenodd" clip-rule="evenodd" d="M418.055 159.932H468.385L526.695 268.571H478.995L470.471 249.981H416.06L407.445 268.571H359.746L418.055 159.932ZM428.303 223.502H458.138L443.265 191.399L428.303 223.502Z" fill="white"/>
<path fill-rule="evenodd" clip-rule="evenodd" d="M626.628 159.932C656.463 159.479 678.59 184.598 678.318 214.252C678.59 243.724 656.463 268.934 626.628 268.572H529.959V159.932H626.628ZM618.648 194.392H572.309V234.112H618.648C629.712 234.112 635.878 225.134 635.878 214.252C635.878 203.279 629.712 194.392 618.648 194.392Z" fill="white"/>
<path d="M733.273 231.3V268.39H690.923V140.525H733.273V196.84H796.842V159.75H839.282V287.705H796.842V231.3H733.273Z" fill="black"/>
<path fill-rule="evenodd" clip-rule="evenodd" d="M900.856 159.932H951.186L1009.5 268.571H961.796L953.181 249.981H898.771L890.246 268.571H842.547L900.856 159.932ZM911.104 223.502H940.939L926.066 191.399L911.104 223.502Z" fill="black"/>
<path fill-rule="evenodd" clip-rule="evenodd" d="M1117.41 159.841C1139.81 159.569 1158.76 178.432 1158.49 200.921C1158.49 209.083 1156.31 216.519 1151.96 223.139C1147.61 229.668 1141.89 234.656 1134.82 238.011L1158.49 268.481H1113.33L1092.93 242.001H1055.11V268.481H1012.76V159.841H1117.41ZM1055.02 191.581V210.08H1106.71C1109.31 210.08 1111.49 209.204 1113.24 207.45C1115.14 205.637 1115.96 203.37 1115.96 200.921C1115.96 195.752 1111.88 191.581 1106.71 191.581H1055.02Z" fill="black"/>
<path fill-rule="evenodd" clip-rule="evenodd" d="M1268.22 159.932C1298.05 159.479 1320.27 184.598 1320 214.252C1320.27 243.724 1298.05 268.934 1268.22 268.572H1171.55V159.932H1268.22ZM1260.33 194.392H1213.9V234.112H1260.33C1271.3 234.112 1277.56 225.134 1277.56 214.252C1277.56 203.279 1271.3 194.392 1260.33 194.392Z" fill="black"/>
</svg>
