<svg width="328" height="72" viewBox="0 0 328 72" fill="none" xmlns="http://www.w3.org/2000/svg">
<path fill-rule="evenodd" clip-rule="evenodd" d="M76.8939 66.4133H51.8294L25.9517 21.6818L38.447 0L76.8939 66.4133ZM59.4264 52.6242C59.7776 51.1455 59.0382 49.9255 58.8534 49.6298C53.7025 40.7944 48.5516 31.9528 43.4007 23.1051C43.2343 22.8648 42.6613 22.1439 41.6077 21.8297C40.3139 21.46 39.2418 22.033 39.0385 22.1439C37.9048 22.8217 36.7772 23.4994 35.6559 24.1772C41.9651 35.0212 48.2805 45.8652 54.6021 56.7092C55.9945 55.7973 57.387 54.8916 58.7794 53.992C59.0013 53.6963 59.297 53.2342 59.4264 52.6242Z" fill="#232323"/>
<path fill-rule="evenodd" clip-rule="evenodd" d="M76.8939 66.4133H51.8294L25.9517 21.6818L38.447 0L76.8939 66.4133ZM59.4264 52.6242C59.7776 51.1455 59.0382 49.9255 58.8534 49.6298C53.7025 40.7944 48.5516 31.9528 43.4007 23.1051C43.2343 22.8648 42.6613 22.1439 41.6077 21.8297C40.3139 21.46 39.2418 22.033 39.0385 22.1439C37.9048 22.8217 36.7772 23.4994 35.6559 24.1772C41.9651 35.0212 48.2805 45.8652 54.6021 56.7092C55.9945 55.7973 57.387 54.8916 58.7795 53.992C59.0013 53.6963 59.297 53.2342 59.4264 52.6242Z" fill="black"/>
<path fill-rule="evenodd" clip-rule="evenodd" d="M46.469 66.3579H46.432L33.9553 66.4133L31.386 61.6075H15.083L12.5692 66.3579H0L23.179 26.0811L23.216 26.118L46.1178 65.8034L46.469 66.3579ZM32.7908 58.2803L32.6429 58.04L23.1975 41.6816L13.6597 58.2803H26.8574L26.8759 58.3173H32.7908V58.2803Z" fill="#E1181F"/>
<path d="M64.6943 6.58008C63.4743 9.00149 62.1065 11.312 60.7017 13.5855C59.2969 15.8776 57.8182 18.1141 56.3025 20.3138C55.7233 21.164 55.1257 22.0081 54.5095 22.8461C54.4479 22.957 54.374 23.0617 54.2877 23.1603L53.8256 22.3655L53.3635 21.5522C53.4251 21.4413 53.4929 21.3365 53.5668 21.238C53.9981 20.5972 54.4294 19.9564 54.8607 19.3156C56.3887 17.1222 57.9599 14.9534 59.5742 12.8092C61.2193 10.6835 62.8828 8.59484 64.6943 6.58008Z" fill="black"/>
<path d="M75.563 22.1621C73.4373 23.8257 71.2192 25.3414 68.9826 26.8016C66.7276 28.268 64.4479 29.679 62.1435 31.0345C61.4165 31.4534 60.6895 31.8662 59.9624 32.2729C59.8638 32.3345 59.7653 32.39 59.6667 32.4393L59.2415 31.7184L58.8164 30.979C58.915 30.9174 59.0136 30.8558 59.1121 30.7942C59.8269 30.3629 60.5416 29.9377 61.2563 29.5188C63.573 28.1756 65.9205 26.8817 68.2987 25.6371C70.6647 24.3987 73.0676 23.1972 75.563 22.1621Z" fill="black"/>
<path d="M83.4556 37.9297C80.8679 38.6875 78.2431 39.2605 75.6184 39.7966C72.9813 40.3141 70.3381 40.7701 67.6887 41.1644C66.9001 41.2876 66.1114 41.4047 65.3228 41.5156C65.1872 41.5279 65.0578 41.5402 64.9346 41.5526L64.491 40.7762L64.0289 39.9999C64.1521 39.9753 64.2753 39.9568 64.3986 39.9445C65.409 39.7596 66.4256 39.5933 67.4484 39.4454C70.0855 39.0511 72.741 38.7183 75.4151 38.4472C78.0768 38.1885 80.757 37.9667 83.4556 37.9297Z" fill="black"/>
<path fill-rule="evenodd" clip-rule="evenodd" d="M46.469 66.3579H46.432L33.9553 66.4133L31.386 61.6075H15.083L12.5692 66.3579H0L23.216 26.118L23.2345 26.0811L46.469 66.3579ZM28.3546 54.0105L23.2345 44.3988L18.1144 54.0105H28.3546Z" fill="white"/>
<path fill-rule="evenodd" clip-rule="evenodd" d="M103.774 39.7588H116.286L130.782 66.7668H118.924L116.805 62.1452H103.278L101.136 66.7668H89.2781L103.774 39.7588ZM106.322 55.5623H113.739L110.041 47.5817L106.322 55.5623Z" fill="white"/>
<path fill-rule="evenodd" clip-rule="evenodd" d="M155.626 39.7593C163.043 39.6466 168.544 45.8913 168.476 53.2633C168.544 60.5902 163.043 66.8575 155.626 66.7674H131.594V39.7593H155.626ZM153.642 48.3261H142.122V58.2005H153.642C156.392 58.2005 157.925 55.9686 157.925 53.2633C157.925 50.5355 156.392 48.3261 153.642 48.3261Z" fill="white"/>
<path d="M182.138 57.5014V66.722H171.61V34.9346H182.138V48.9346H197.942V39.714H208.492V71.5239H197.942V57.5014H182.138Z" fill="black"/>
<path fill-rule="evenodd" clip-rule="evenodd" d="M223.8 39.7588H236.312L250.808 66.7668H238.95L236.808 62.1452H223.281L221.162 66.7668H209.304L223.8 39.7588ZM226.347 55.5623H233.764L230.067 47.5817L226.347 55.5623Z" fill="black"/>
<path fill-rule="evenodd" clip-rule="evenodd" d="M277.636 39.7361C283.204 39.6684 287.916 44.3577 287.848 49.9486C287.848 51.9776 287.307 53.8263 286.225 55.472C285.143 57.0952 283.722 58.3351 281.964 59.1692L287.848 66.7441H276.621L271.549 60.1612H262.148V66.7441H251.619V39.7361H277.636ZM262.125 47.6266V52.2256H274.975C275.622 52.2256 276.163 52.0077 276.598 51.5718C277.072 51.1209 277.275 50.5573 277.275 49.9486C277.275 48.6636 276.26 47.6266 274.975 47.6266H262.125Z" fill="black"/>
<path fill-rule="evenodd" clip-rule="evenodd" d="M315.127 39.7593C322.544 39.6466 328.067 45.8913 327.999 53.2633C328.067 60.5902 322.544 66.8575 315.127 66.7674H291.094V39.7593H315.127ZM313.165 48.3261H301.623V58.2005H313.165C315.893 58.2005 317.449 55.9686 317.449 53.2633C317.449 50.5355 315.893 48.3261 313.165 48.3261Z" fill="black"/>
</svg>
