<svg width="126" height="100" viewBox="0 0 126 100" fill="none" xmlns="http://www.w3.org/2000/svg">
<path fill-rule="evenodd" clip-rule="evenodd" d="M115.781 100H78.0406L39.076 32.6468L57.8903 0L115.781 100ZM89.4795 79.2374C90.0083 77.0109 88.8951 75.1739 88.6168 74.7286C80.8609 61.425 73.1051 48.1121 65.3493 34.7899C65.0988 34.4281 64.236 33.3426 62.6496 32.8695C60.7014 32.3128 59.0871 33.1756 58.781 33.3426C57.0739 34.3631 55.3762 35.3836 53.6877 36.4041C63.1877 52.7322 72.6969 69.0602 82.2154 85.3882C84.3121 84.0152 86.4088 82.6514 88.5054 81.297C88.8394 80.8516 89.2847 80.1559 89.4795 79.2374Z" fill="#232323"/>
<path fill-rule="evenodd" clip-rule="evenodd" d="M115.781 100H78.0406L39.076 32.6468L57.8903 0L115.781 100ZM89.4795 79.2374C90.0084 77.0109 88.8951 75.1739 88.6168 74.7286C80.8609 61.425 73.1051 48.1121 65.3493 34.7899C65.0988 34.4281 64.236 33.3426 62.6496 32.8695C60.7014 32.3128 59.0871 33.1756 58.781 33.3426C57.0739 34.3631 55.3762 35.3836 53.6877 36.4041C63.1877 52.7322 72.6969 69.0602 82.2154 85.3883C84.3121 84.0152 86.4088 82.6514 88.5054 81.297C88.8394 80.8516 89.2847 80.1559 89.4795 79.2374Z" fill="black"/>
<path fill-rule="evenodd" clip-rule="evenodd" d="M69.9694 99.9165H69.9137L51.1272 100L47.2586 92.7637H22.7108L18.9257 99.9165H0L34.9012 39.2708L34.9569 39.3265L69.4406 99.0816L69.9694 99.9165ZM49.3738 87.754L49.1511 87.3922L34.929 62.7609L20.5678 87.754H40.4397L40.4676 87.8096H49.3738V87.754Z" fill="#E1181F"/>
<path d="M97.4117 9.90814C95.5748 13.5541 93.5152 17.0331 91.4 20.4564C89.2847 23.9076 87.0582 27.2752 84.776 30.5872C83.9039 31.8675 83.004 33.1385 82.0763 34.4002C81.9835 34.5672 81.8722 34.7249 81.7423 34.8734L81.0465 33.6766L80.3507 32.452C80.4435 32.285 80.5455 32.1273 80.6569 31.9788C81.3063 31.014 81.9557 30.0492 82.6051 29.0843C84.9059 25.7816 87.2716 22.516 89.7022 19.2875C92.1793 16.0868 94.6841 12.9418 97.4117 9.90814Z" fill="black"/>
<path d="M113.777 33.3705C110.576 35.8754 107.236 38.1576 103.869 40.3563C100.473 42.5643 97.0405 44.6888 93.5708 46.7298C92.4761 47.3606 91.3813 47.9822 90.2866 48.5945C90.1382 48.6873 89.9897 48.7708 89.8413 48.845L89.2012 47.7596L88.561 46.6463C88.7095 46.5535 88.8579 46.4607 89.0063 46.368C90.0825 45.7186 91.1587 45.0784 92.2348 44.4476C95.7231 42.4251 99.2578 40.4769 102.839 38.6029C106.401 36.7381 110.019 34.9291 113.777 33.3705Z" fill="black"/>
<path d="M125.661 57.1111C121.765 58.2522 117.812 59.115 113.86 59.9221C109.89 60.7014 105.91 61.3879 101.92 61.9816C100.733 62.1672 99.5455 62.3434 98.358 62.5104C98.1539 62.529 97.959 62.5476 97.7735 62.5661L97.1055 61.3972L96.4097 60.2282C96.5953 60.1911 96.7808 60.1633 96.9664 60.1447C98.4878 59.8664 100.019 59.6159 101.559 59.3933C105.529 58.7995 109.528 58.2986 113.554 57.8904C117.562 57.5007 121.598 57.1667 125.661 57.1111Z" fill="black"/>
<path fill-rule="evenodd" clip-rule="evenodd" d="M69.9694 99.9165H69.9137L51.1272 100L47.2586 92.7637H22.7108L18.9257 99.9165H0L34.9569 39.3265L34.9847 39.2708L69.9694 99.9165ZM42.6941 81.3248L34.9847 66.8522L27.2753 81.3248H42.6941Z" fill="white"/>
</svg>
